#!OML:ASF I:\salsa\salsa 7_09\Patient 1\Session 1\dancermale.ASF
:FULLY-SPECIFIED
:DEGREES
1472
root 3.29479 17.0665 5.89627 9.41051 185.192 -4.91197
lowerback -0.831108 3.97407 5.22241
upperback -1.81546 5.21789 -3.46929
thorax -0.618347 2.52108 -6.47739
lowerneck 0.363155 -17.363 -9.4586
upperneck 21.5973 -30.1926 11.1387
head 9.99996 -14.964 1.84538
rclavicle 1.33434e-014 -8.15017e-015
rhumerus -16.2708 -38.8484 -58.2247
rradius 64.9095
rwrist -39.0741
rhand -20.2271 0.688148
rfingers 7.12502
rthumb 6.12061 -29.2034
lclavicle 1.33434e-014 -8.15017e-015
lhumerus -15.2164 -27.8184 55.4078
lradius 133.234
lwrist 55.1709
lhand -2.81937 50.0319
lfingers 7.12502
lthumb 22.8873 438.694
rfemur -42.9675 -17.0841 4.20668
rtibia 56.5108
rfoot -2.72848 -14.9896
rtoes 4.37314
lfemur -23.5165 -2.53757 -23.2643
ltibia 34.5544
lfoot 337.835 7.00844
ltoes -16.8477
1473
root 3.31489 17.0558 5.9949 9.11102 185.095 -4.66143
lowerback -0.655299 3.89559 5.00451
upperback -1.66757 5.12732 -3.34754
thorax -0.607032 2.48533 -6.23579
lowerneck 0.298321 -17.4441 -9.3254
upperneck 21.6367 -30.3283 11.0767
head 10.0104 -15.0182 1.78312
rclavicle 2.70844e-014 -8.34896e-015
rhumerus -15.6866 -37.7469 -60.1425
rradius 66.0236
rwrist -38.2915
rhand -22.4066 0.35427
rfingers 7.12502
rthumb 4.01614 -29.5876
lclavicle 2.70844e-014 -8.34896e-015
lhumerus -17.3369 -30.6343 59.6124
lradius 131.879
lwrist 52.9103
lhand -3.04303 49.4778
lfingers 7.12502
lthumb 22.6727 438.166
rfemur -43.5926 -18.1575 4.01932
rtibia 58.8578
rfoot -3.81709 -13.4322
rtoes 3.96281
lfemur -23.524 -2.86242 -22.9258
ltibia 34.3224
lfoot 338.35 7.34136
ltoes -16.8846
1474
root 3.34377 17.0454 6.09144 8.92768 185.068 -4.32918
lowerback -0.586044 3.80902 4.83545
upperback -1.61039 5.02082 -3.15031
thorax -0.633826 2.4369 -5.93943
lowerneck 0.251288 -17.4915 -9.29077
upperneck 21.7384 -30.3979 10.9295
head 10.0321 -15.0538 1.71604
rclavicle 2.90723e-015 -2.54444e-014
rhumerus -14.981 -36.5787 -62.1434
rradius 66.9973
rwrist -37.276
rhand -24.2284 0.0222294
rfingers 7.12502
rthumb 2.25682 -29.9456
lclavicle 2.90723e-015 -2.54444e-014
lhumerus -19.223 -33.4116 64.1027
lradius 130.647
lwrist 51.3872
lhand -4.75163 50.3217
lfingers 7.12502
lthumb 21.032 439.201
rfemur -44.1292 -18.7864 3.93066
rtibia 61.5025
rfoot -4.21215 -14.2202
rtoes 5.58366
lfemur -23.8975 -3.69066 -22.4441
ltibia 34.564
lfoot 338.748 8.06776
ltoes -16.4775
1475
root 3.38029 17.038 6.186 8.8453 185.089 -3.91235
lowerback -0.590263 3.72426 4.78634
upperback -1.63284 4.91328 -2.91895
thorax -0.693763 2.38338 -5.67356
lowerneck 0.139638 -17.5439 -9.28881
upperneck 22.0185 -30.4618 10.5904
head 10.0999 -15.0937 1.58205
rclavicle 4.72114e-014 1.35174e-014
rhumerus -14.1575 -35.9371 -64.5609
rradius 68.0986
rwrist -35.5895
rhand -25.5106 -0.283993
rfingers 7.12502
rthumb 1.01839 -30.2613
lclavicle 4.72114e-014 1.35174e-014
lhumerus -20.8003 -36.2805 68.5953
lradius 129.725
lwrist 51.0535
lhand -6.78007 51.3329
lfingers 7.12502
lthumb 19.0823 440.417
rfemur -44.5512 -19.1071 3.92617
rtibia 64.3754
rfoot -4.6706 -15.5825
rtoes 7.34234
lfemur -24.4972 -4.70562 -21.8282
ltibia 35.0869
lfoot 338.985 9.10809
ltoes -16.4112
1476
root 3.42828 17.0297 6.27526 8.78753 184.99 -3.54757
lowerback -0.705096 3.71397 4.93002
upperback -1.57761 4.89793 -2.87587
thorax -0.566618 2.38116 -5.69901
lowerneck 0.0247824 -17.5738 -9.36435
upperneck 22.1442 -30.5293 10.5793
head 10.1837 -15.1178 1.55323
rclavicle -1.64494e-014 5.56597e-015
rhumerus -13.4678 -35.0111 -66.6971
rradius 69.0947
rwrist -34.3789
rhand -26.7609 -0.395969
rfingers 7.12502
rthumb -0.189145 -30.3756
lclavicle -1.64494e-014 5.56597e-015
lhumerus -21.5006 -39.1987 72.3057
lradius 128.573
lwrist 50.4122
lhand -7.35099 50.4174
lfingers 7.12502
lthumb 18.5332 439.554
rfemur -44.7525 -19.1291 3.81899
rtibia 67.1216
rfoot -4.77602 -17.1855
rtoes 9.40582
lfemur -25.0315 -5.44073 -21.249
ltibia 35.5477
lfoot 339.23 10.2102
ltoes -16.7914
1477
root 3.48671 17.0204 6.35837 8.79896 184.804 -3.31375
lowerback -0.891989 3.74588 4.98562
upperback -1.51928 4.93207 -2.92722
thorax -0.388048 2.40486 -5.76675
lowerneck 0.0403726 -17.5364 -9.56453
upperneck 21.9563 -30.5292 10.9948
head 10.2188 -15.1044 1.69835
rclavicle -3.74709e-014 6.75868e-015
rhumerus -12.866 -34.122 -68.742
rradius 70.0439
rwrist -33.1292
rhand -27.7635 -0.735221
rfingers 7.12502
rthumb -1.15754 -30.7118
lclavicle -3.74709e-014 6.75868e-015
lhumerus -21.6788 -42.1975 75.6047
lradius 127.495
lwrist 49.2754
lhand -7.57218 50.1159
lfingers 7.12502
lthumb 18.3204 439.273
rfemur -44.6801 -19.0084 3.50963
rtibia 69.6216
rfoot -4.39308 -18.6024
rtoes 13.194
lfemur -25.4771 -5.90947 -20.767
ltibia 35.7554
lfoot 339.51 10.9879
ltoes -16.6197
1478
root 3.56223 17.0138 6.43743 8.77972 184.52 -3.10416
lowerback -0.918649 3.80641 4.81428
upperback -1.54484 5.01099 -2.90685
thorax -0.404768 2.44394 -5.64602
lowerneck -0.0938342 -17.665 -9.40715
upperneck 21.8213 -30.6196 10.9428
head 10.1693 -15.1292 1.64449
rclavicle 4.90377e-014 -2.71341e-014
rhumerus -12.2981 -33.0808 -70.8372
rradius 70.7666
rwrist -31.6493
rhand -28.8745 -0.979017
rfingers 7.12502
rthumb -2.23047 -30.9471
lclavicle 4.90377e-014 -2.71341e-014
lhumerus -21.8003 -45.3819 79.0357
lradius 126.538
lwrist 47.6441
lhand -7.91361 49.8986
lfingers 7.12502
lthumb 17.992 439.086
rfemur -44.2118 -18.6645 3.13325
rtibia 71.7233
rfoot -3.44692 -19.4853
rtoes 18.1368
lfemur -25.6913 -6.14509 -20.2281
ltibia 35.5851
lfoot 339.759 11.468
ltoes -15.8842
1479
root 3.65379 17.0122 6.51224 8.83555 184.313 -2.93157
lowerback -1.07258 3.86224 4.55327
upperback -1.55581 5.07861 -2.86518
thorax -0.346652 2.48041 -5.4431
lowerneck -0.146334 -17.7611 -9.45246
upperneck 21.5449 -30.7442 11.2381
head 10.1531 -15.1669 1.71635
rclavicle 2.66309e-014 8.74653e-015
rhumerus -12.1308 -31.3251 -72.4171
rradius 71.5903
rwrist -30.9081
rhand -30.3757 -0.831246
rfingers 7.12502
rthumb -3.68025 -30.7792
lclavicle 2.66309e-014 8.74653e-015
lhumerus -21.5895 -48.6746 82.2264
lradius 125.638
lwrist 45.8746
lhand -8.11484 49.6346
lfingers 7.12502
lthumb 17.7983 438.84
rfemur -43.3439 -18.3153 2.74151
rtibia 73.1493
rfoot -2.01848 -19.6104
rtoes 21.7364
lfemur -25.8184 -6.3047 -19.6401
ltibia 35.1227
lfoot 340.09 11.7243
ltoes -16.0545
1480
root 3.74618 17.0148 6.58441 9.11327 184.633 -2.92895
lowerback -1.6917 3.79841 4.33301
upperback -1.42961 4.96972 -2.90043
thorax 0.101023 2.44135 -5.30888
lowerneck -0.303213 -17.848 -9.36859
upperneck 21.0172 -30.7961 11.7387
head 10.0723 -15.1426 1.84675
rclavicle -8.5788e-015 -3.23025e-015
rhumerus -11.9547 -29.469 -73.7946
rradius 72.5624
rwrist -31.2363
rhand -31.315 -0.59044
rfingers 7.12502
rthumb -4.58729 -30.5208
lclavicle -8.5788e-015 -3.23025e-015
lhumerus -20.573 -51.8982 84.7575
lradius 124.76
lwrist 44.3234
lhand -7.9325 49.5719
lfingers 7.12502
lthumb 17.9738 438.761
rfemur -42.0123 -18.5587 2.19933
rtibia 73.7525
rfoot -0.0961791 -18.8124
rtoes 22.5511
lfemur -26.219 -6.85506 -19.1672
ltibia 34.667
lfoot 340.603 11.7358
ltoes -16.7551
1481
root 3.84443 17.0209 6.65358 9.45184 185.179 -2.99247
lowerback -1.69634 3.60587 4.25662
upperback -1.73816 4.69614 -3.12956
thorax -0.235197 2.28047 -5.52751
lowerneck -0.439564 -17.8263 -9.17141
upperneck 21.1567 -30.8997 11.871
head 10.1543 -15.1732 1.82266
rclavicle 2.8333e-014 -1.20265e-014
rhumerus -12.2919 -28.0228 -75.7012
rradius 73.5027
rwrist -30.9602
rhand -31.7068 -0.541152
rfingers 7.12502
rthumb -4.96566 -30.463
lclavicle 2.8333e-014 -1.20265e-014
lhumerus -20.4854 -55.012 87.6733
lradius 123.996
lwrist 43.0724
lhand -7.84189 49.6262
lfingers 7.12502
lthumb 18.061 438.808
rfemur -40.1695 -19.0085 1.64697
rtibia 73.543
rfoot 2.19369 -16.8441
rtoes 20.6733
lfemur -26.7261 -7.45446 -18.7077
ltibia 34.2389
lfoot 341.365 11.6288
ltoes -16.6483
1482
root 3.96276 17.033 6.71437 9.70418 185.326 -2.88933
lowerback -1.8543 3.5947 4.053
upperback -1.87705 4.6689 -3.18
thorax -0.304995 2.25911 -5.46139
lowerneck -0.712661 -17.9491 -9.03806
upperneck 21.2382 -31.0918 11.8748
head 10.2354 -15.2315 1.73958
rclavicle -7.65383e-014 2.98177e-016
rhumerus -12.304 -26.8206 -77.8551
rradius 74.2978
rwrist -29.2362
rhand -32.8705 -0.76663
rfingers 7.12502
rthumb -6.08916 -30.6591
lclavicle -7.65383e-014 2.98177e-016
lhumerus -20.0646 -57.9495 90.5908
lradius 123.241
lwrist 42.2285
lhand -7.9854 49.5919
lfingers 7.12502
lthumb 17.9229 438.786
rfemur -37.9573 -19.0392 1.53756
rtibia 72.2187
rfoot 3.22478 -15.6102
rtoes 23.8675
lfemur -27.0226 -7.50008 -18.0255
ltibia 33.6882
lfoot 342.169 11.3545
ltoes -16.1194
